# xmcd CD database file
#
# Track frame offsets:
#	150
#	14975
#	24737
#	50857
#	75562
#	93005
#	119245
#	142462
#	164612
#	181332
#	194062
#	205902
#	221572
#	241375
#	263212
#	282550
#	306892
#	318205
#
# Disc length: 4454 seconds
#
# Revision: 4
# Processed by: cddbd v1.5PL3 Copyright (c) Steve Scherf et al.
# Submitted via: CDex 1.51
#
DISCID=24116412
DTITLE=The Clash - Sandinista! (Disk 2)
DYEAR=1980
DGENRE=Punk Rock
TTITLE0=Police On My Back
TTITLE1=Midnight Log
TTITLE2=The Equaliser
TTITLE3=The Call Up
TTITLE4=Washington Bullets
TTITLE5=Broadway
TTITLE6=Lose This Skin
TTITLE7=Charlie Don't Surf
TTITLE8=Mensforth Hill
TTITLE9=Junkie Slip
TTITLE10=Kingston Advice
TTITLE11=The Street Parade
TTITLE12=Version City
TTITLE13=Living In Fame
TTITLE14=Silicone On Sapphire
TTITLE15=Version Pardner
TTITLE16=Career Opportunities
TTITLE17=Shepherds Delight
EXTD=YEAR: 1980
EXTT0=
EXTT1=
EXTT2=
EXTT3=
EXTT4=
EXTT5=
EXTT6=
EXTT7=
EXTT8=
EXTT9=
EXTT10=
EXTT11=
EXTT12=
EXTT13=
EXTT14=
EXTT15=
EXTT16=
EXTT17=
PLAYORDER=
